# Exported from Wings 3D 1.5.3
mtllib Bullet.mtl
o icosahedron1
#12 vertices, 20 faces
v -3.6347513e-17 2.8769501e-17 0.78395454
v -2.9034719e-17 0.19323693 9.6618465e-2
v 0.18377924 5.9713495e-2 9.6618465e-2
v 0.11358182 -0.15633196 9.6618465e-2
v -0.11358182 -0.15633196 9.6618465e-2
v -0.18377924 5.9713495e-2 9.6618465e-2
v -1.7202369e-17 -0.19323693 -9.6618465e-2
v -0.18377924 -5.9713495e-2 -9.6618465e-2
v -0.11358182 0.15633196 -9.6618465e-2
v 0.11358182 0.15633196 -9.6618465e-2
v 0.18377924 -5.9713495e-2 -9.6618465e-2
v -9.8895752e-18 2.3115633e-18 -0.21604546
vn -2.0023689e-16 3.0035533e-16 1.00000000
vn -7.9357886e-17 0.98862798 0.15038189
vn 0.94024108 0.30550285 0.15038189
vn 0.58110095 -0.79981684 0.15038189
vn -0.58110095 -0.79981684 0.15038189
vn -0.94024108 0.30550285 0.15038189
vn 4.1913425e-17 -0.89442719 -0.44721360
vn -0.85065081 -0.27639320 -0.44721360
vn -0.52573111 0.72360680 -0.44721360
vn 0.52573111 0.72360680 -0.44721360
vn 0.85065081 -0.27639320 -0.44721360
vn 1.1176913e-16 -5.5884567e-17 -1.00000000
g icosahedron1_default
usemtl default
s 1
f 1//1 3//3 2//2
f 1//1 4//4 3//3
f 1//1 5//5 4//4
f 1//1 6//6 5//5
f 2//2 6//6 1//1
f 2//2 9//9 6//6
f 2//2 10//10 9//9
f 3//3 10//10 2//2
f 3//3 11//11 10//10
f 4//4 11//11 3//3
f 5//5 7//7 4//4
f 5//5 8//8 7//7
f 6//6 8//8 5//5
f 6//6 9//9 8//8
f 7//7 11//11 4//4
f 7//7 12//12 11//11
f 8//8 12//12 7//7
f 9//9 12//12 8//8
f 10//10 12//12 9//9
f 11//11 12//12 10//10
