# Exported from Wings 3D 1.5.3
mtllib PlayerShip2.mtl
o Cube1_sep7
#8 vertices, 12 faces
v -0.35801188 -6.6645987e-2 -5.5015079e-3
v -0.28000379 -6.5939989e-2 0.64219936
v -0.35801188 6.5120503e-2 -5.5015079e-3
v -0.28000379 6.5826501e-2 0.77396585
v -0.14184662 -6.4439579e-2 0.63933657
v -0.14184662 6.7326911e-2 0.77110306
v -0.10432553 -6.5939989e-2 -9.2883984e-2
v -0.10432553 6.5826501e-2 -9.2883984e-2
vn 3.0325876e-3 -0.99999514 7.2476099e-4
vn -0.99282525 0.0000000e+0 0.11957433
vn -0.32567231 0.0000000e+0 -0.94548271
vn 1.5851257e-2 -0.92346147 0.38336361
vn 1.5851257e-2 -0.92346147 0.38336361
vn -0.99274393 -4.9653332e-2 0.10951732
vn 1.5851257e-2 -0.92346147 0.38336361
vn 1.5851257e-2 -0.92346147 0.38336361
vn -0.99274393 -4.9653332e-2 0.10951732
vn -7.1441708e-3 0.99997412 -8.5246667e-4
vn -0.32567231 0.0000000e+0 -0.94548271
vn -0.99274393 -4.9653332e-2 0.10951732
vn -7.1441708e-3 0.99997412 -8.5246667e-4
vn -0.99274393 -4.9653332e-2 0.10951732
vn -0.32567231 0.0000000e+0 -0.94548271
vn -0.99011462 -9.9179223e-2 9.9179223e-2
vn -1.0855782e-2 0.99994106 1.8074177e-4
vn 2.2325898e-2 -0.70693053 0.70693053
vn 1.7979221e-2 -0.92324542 0.38378983
vn 1.7979221e-2 -0.92324542 0.38378983
vn 0.99737375 -5.1213254e-2 5.1213254e-2
vn -7.1441708e-3 0.99997412 -8.5246667e-4
vn 2.2325898e-2 -0.70693053 0.70693053
vn 0.99855148 -2.5615232e-2 4.7315997e-2
vn -7.1441708e-3 0.99997412 -8.5246667e-4
vn 0.99855148 -2.5615232e-2 4.7315997e-2
vn 2.2325898e-2 -0.70693053 0.70693053
vn 6.9731160e-3 -0.99997430 1.6665116e-3
vn -0.32567231 0.0000000e+0 -0.94548271
vn 0.99855148 -2.5615232e-2 4.7315997e-2
vn 0.99855148 -2.5615232e-2 4.7315997e-2
vn 6.9731160e-3 -0.99997430 1.6665116e-3
vn -0.32567231 0.0000000e+0 -0.94548271
vn -3.4324533e-3 0.99999233 -1.8856625e-3
vn -0.32567231 0.0000000e+0 -0.94548271
vn 0.99905834 0.0000000e+0 4.3386952e-2
g Cube1_sep7_default
usemtl default
s 1
f 3//10 6//22 8//34
f 4//17 6//25 3//13
s 2
f 2//9 3//14 1//2
f 4//16 3//12 2//6
f 5//21 7//31 6//26
f 8//36 6//24 7//30
s 3
f 3//15 7//33 1//3
f 8//35 7//29 3//11
s 4
f 1//1 7//32 2//7
f 2//8 6//27 4//18
f 2//4 7//28 5//19
f 5//20 6//23 2//5
o Cube1_sep6
#8 vertices, 12 faces
v 0.14184662 -6.4439579e-2 0.63933657
v 0.14184662 6.7326911e-2 0.77110306
v 0.35801188 -6.6645987e-2 -5.5015079e-3
v 0.28000379 -6.5939989e-2 0.64219936
v 0.35801188 6.5120503e-2 -5.5015079e-3
v 0.28000379 6.5826501e-2 0.77396585
v 0.10432553 -6.5939989e-2 -9.2883984e-2
v 0.10432553 6.5826501e-2 -9.2883984e-2
vn -1.7979221e-2 -0.92324542 0.38378983
vn -1.7979221e-2 -0.92324542 0.38378983
vn -0.99737375 -5.1213254e-2 5.1213254e-2
vn 7.1441708e-3 0.99997412 -8.5246667e-4
vn -2.2325898e-2 -0.70693053 0.70693053
vn -0.99855148 -2.5615232e-2 4.7315997e-2
vn 7.1441708e-3 0.99997412 -8.5246667e-4
vn -2.2325898e-2 -0.70693053 0.70693053
vn -0.99855148 -2.5615232e-2 4.7315997e-2
vn -3.0325876e-3 -0.99999514 7.2476099e-4
vn 0.32567231 0.0000000e+0 -0.94548271
vn 0.99282525 0.0000000e+0 0.11957433
vn -1.5851257e-2 -0.92346147 0.38336361
vn -1.5851257e-2 -0.92346147 0.38336361
vn 0.99274393 -4.9653332e-2 0.10951732
vn -1.5851257e-2 -0.92346147 0.38336361
vn 0.99274393 -4.9653332e-2 0.10951732
vn -1.5851257e-2 -0.92346147 0.38336361
vn 7.1441708e-3 0.99997412 -8.5246667e-4
vn 0.32567231 0.0000000e+0 -0.94548271
vn 0.99274393 -4.9653332e-2 0.10951732
vn 7.1441708e-3 0.99997412 -8.5246667e-4
vn 0.32567231 0.0000000e+0 -0.94548271
vn 0.99274393 -4.9653332e-2 0.10951732
vn -2.2325898e-2 -0.70693053 0.70693053
vn 0.99011462 -9.9179223e-2 9.9179223e-2
vn 1.0855782e-2 0.99994106 1.8074177e-4
vn -6.9731160e-3 -0.99997430 1.6665116e-3
vn 0.32567231 0.0000000e+0 -0.94548271
vn -0.99855148 -2.5615232e-2 4.7315997e-2
vn 0.32567231 0.0000000e+0 -0.94548271
vn -6.9731160e-3 -0.99997430 1.6665116e-3
vn -0.99855148 -2.5615232e-2 4.7315997e-2
vn 3.4324533e-3 0.99999233 -1.8856625e-3
vn 0.32567231 0.0000000e+0 -0.94548271
vn -0.99905834 0.0000000e+0 4.3386952e-2
g Cube1_sep6_default
usemtl default
s 1
f 14//63 13//58 10//43
f 16//70 10//40 13//55
s 2
f 10//45 15//69 9//39
f 11//48 13//60 12//53
f 12//51 13//57 14//62
f 15//66 10//42 16//72
s 3
f 11//47 15//67 13//59
f 13//56 15//65 16//71
s 4
f 9//38 12//54 10//44
f 9//37 15//68 12//52
f 10//41 12//50 14//61
f 12//49 15//64 11//46
o Cube1
#40 vertices, 76 faces
v 1.3061624e-18 -0.11869600 -0.16953927
v 1.3061624e-18 -0.11869600 0.16943003
v 1.3061624e-18 0.11858251 -0.16953927
v 1.3061624e-18 0.11858251 0.16943003
v 1.3061624e-18 0.15812893 -5.4618518e-5
v 1.3061624e-18 -0.15824242 -5.4618518e-5
v 1.3061624e-18 -5.6743709e-5 0.22592491
v 1.3061624e-18 -5.6743709e-5 -0.22603415
v -4.8096556e-2 -0.11869600 -0.16953927
v -4.8096556e-2 -0.11869600 0.16943003
v -4.8096556e-2 0.11858251 -0.16953927
v -4.8096556e-2 0.11858251 0.16943003
v 4.8096556e-2 -0.11869600 -0.16953927
v 4.8096556e-2 -0.11869600 0.16943003
v 4.8096556e-2 0.11858251 -0.16953927
v 4.8096556e-2 0.11858251 0.16943003
v -4.8096556e-2 -0.15824242 -5.4618518e-5
v -4.8096556e-2 -5.6743709e-5 -0.22603415
v -4.8096556e-2 -5.6743709e-5 0.22592491
v -4.8096556e-2 0.15812893 -5.4618518e-5
v 4.8096556e-2 -0.15824242 -5.4618518e-5
v 4.8096556e-2 -5.6743709e-5 -0.22603415
v 4.8096556e-2 -5.6743709e-5 0.22592491
v 4.8096556e-2 0.15812893 -5.4618518e-5
v 8.2354056e-2 -0.10997860 -5.4618518e-5
v 8.2354056e-2 -7.8064484e-2 -0.13682941
v 8.2354056e-2 -5.6743709e-5 -0.17397595
v 8.2354056e-2 7.7950997e-2 -0.13682941
v 8.2354056e-2 0.10986511 -5.4618518e-5
v 8.2354056e-2 7.7950997e-2 0.13672017
v 8.2354056e-2 -5.6743709e-5 0.17386672
v 8.2354056e-2 -7.8064484e-2 0.13672017
v -8.2354056e-2 -0.10997860 -5.4618518e-5
v -8.2354056e-2 -7.8064484e-2 0.13672017
v -8.2354056e-2 -5.6743709e-5 0.17386672
v -8.2354056e-2 7.7950997e-2 0.13672017
v -8.2354056e-2 0.10986511 -5.4618518e-5
v -8.2354056e-2 7.7950997e-2 -0.13682941
v -8.2354056e-2 -5.6743709e-5 -0.17397595
v -8.2354056e-2 -7.8064484e-2 -0.13682941
vn 0.0000000e+0 -0.77895134 -0.62708437
vn 0.0000000e+0 -0.77895134 0.62708437
vn 0.0000000e+0 0.77895134 -0.62708437
vn 0.0000000e+0 0.77895134 0.62708437
vn 0.0000000e+0 1.00000000 2.8501131e-17
vn 0.0000000e+0 -1.00000000 1.4250565e-17
vn 0.0000000e+0 -3.0741820e-17 1.00000000
vn 0.0000000e+0 -6.1483640e-17 -1.00000000
vn -0.49152361 -0.67836088 -0.54610536
vn -0.49152361 -0.67836088 0.54610536
vn -0.49152361 0.67836088 -0.54610536
vn -0.49152361 0.67836088 0.54610536
vn 0.49152361 -0.67836088 -0.54610536
vn 0.49152361 -0.67836088 0.54610536
vn 0.49152361 0.67836088 -0.54610536
vn 0.49152361 0.67836088 0.54610536
vn -0.46290888 -0.88640587 7.9494588e-18
vn -0.49078259 1.6856259e-17 -0.87128207
vn -0.49078259 8.4281296e-18 0.87128207
vn -0.46290888 0.88640587 1.5898918e-17
vn 0.46290888 -0.88640587 7.9494588e-18
vn 0.49078259 -1.6856259e-17 -0.87128207
vn 0.49078259 0.0000000e+0 0.87128207
vn 0.46290888 0.88640587 1.5898918e-17
vn 0.97048059 -0.24117922 -5.8350945e-18
vn 0.92663600 -0.29285434 -0.23575847
vn 0.92637516 0.0000000e+0 -0.37660199
vn 0.94659171 0.25116094 -0.20219376
vn 0.97048059 0.24117922 0.0000000e+0
vn 0.92663600 0.29285434 0.23575847
vn 0.92637516 0.0000000e+0 0.37660199
vn 0.94659171 -0.25116094 0.20219376
vn -0.97048059 -0.24117922 -5.8350945e-18
vn -0.92663600 -0.29285434 0.23575847
vn -0.92637516 0.0000000e+0 0.37660199
vn -0.94659171 0.25116094 0.20219376
vn -0.97048059 0.24117922 0.0000000e+0
vn -0.92663600 0.29285434 -0.23575847
vn -0.92637516 0.0000000e+0 -0.37660199
vn -0.94659171 -0.25116094 -0.20219376
g Cube1_default
usemtl default
s 1
f 17//73 33//89 25//81
f 17//73 34//90 24//80
f 17//73 37//93 22//78
f 17//73 38//94 29//85
f 18//74 33//89 22//78
f 18//74 35//91 26//82
f 18//74 37//93 30//86
f 18//74 39//95 23//79
f 19//75 34//90 27//83
f 19//75 36//92 21//77
f 19//75 38//94 24//80
f 19//75 40//96 31//87
f 20//76 35//91 23//79
f 20//76 36//92 28//84
f 20//76 39//95 32//88
f 20//76 40//96 21//77
f 21//77 36//92 20//76
f 21//77 40//96 19//75
f 22//78 33//89 17//73
f 22//78 37//93 18//74
f 23//79 35//91 18//74
f 23//79 39//95 20//76
f 24//80 34//90 19//75
f 24//80 38//94 17//73
f 25//81 34//90 17//73
f 25//81 56//112 34//90
f 26//82 33//89 18//74
f 26//82 50//106 33//89
f 27//83 34//90 54//110
f 27//83 36//92 19//75
f 28//84 35//91 20//76
f 28//84 36//92 52//108
f 29//85 37//93 17//73
f 29//85 38//94 42//98
f 30//86 37//93 48//104
f 30//86 39//95 18//74
f 31//87 38//94 19//75
f 31//87 44//100 38//94
f 32//88 40//96 20//76
f 32//88 46//102 40//96
f 33//89 50//106 49//105
f 33//89 56//112 25//81
f 35//91 50//106 26//82
f 35//91 52//108 51//107
f 38//94 44//100 43//99
f 39//95 46//102 32//88
f 40//96 44//100 31//87
f 40//96 46//102 45//101
f 41//97 37//93 42//98
f 41//97 45//101 48//104
f 41//97 48//104 37//93
f 42//98 37//93 29//85
f 42//98 44//100 41//97
f 43//99 42//98 38//94
f 43//99 44//100 42//98
f 45//101 41//97 44//100
f 45//101 44//100 40//96
f 46//102 39//95 47//103
f 46//102 48//104 45//101
f 47//103 39//95 48//104
f 47//103 48//104 46//102
f 48//104 39//95 30//86
f 49//105 53//109 56//112
f 49//105 56//112 33//89
f 50//106 52//108 49//105
f 51//107 50//106 35//91
f 51//107 52//108 50//106
f 52//108 35//91 28//84
f 52//108 36//92 53//109
f 53//109 36//92 54//110
f 53//109 49//105 52//108
f 54//110 34//90 55//111
f 54//110 36//92 27//83
f 54//110 56//112 53//109
f 55//111 34//90 56//112
f 55//111 56//112 54//110
