# Exported from Wings 3D 1.5.2
mtllib Ship.mtl
o N-Gon1_copy3
#23 vertices, 26 faces
v -8.6932394e-5 -1.0206007e-3 0.60345555
v -0.40062002 -1.0206007e-3 0.39184768
v -0.50008693 -1.0206007e-3 -5.8259070e-2
v -0.27037831 -1.0206007e-3 -0.34589409
v 0.27020445 -1.0206007e-3 -0.34589409
v 0.49991307 -1.0206007e-3 -5.8259070e-2
v 0.40044616 -1.0206007e-3 0.39184768
v -8.6932394e-5 0.16291573 8.2692103e-2
v -8.6932394e-5 -0.16495694 8.2692103e-2
v -0.33758693 0.10143961 -1.2449939e-2
v 0.33741307 0.10143961 -1.2449939e-2
v 0.18235975 0.10143961 -0.20660353
v -0.18253361 0.10143961 -0.20660353
v -0.27044677 0.10143961 0.29137212
v -8.6932394e-5 0.10143961 0.43420743
v 0.27027290 0.10143961 0.29137212
v 0.33741307 -0.10348081 -1.2449939e-2
v -0.33758693 -0.10348081 -1.2449939e-2
v -0.18253361 -0.10348081 -0.20660353
v 0.18235975 -0.10348081 -0.20660353
v 0.27027290 -0.10348081 0.29137212
v -8.6932394e-5 -0.10348081 0.43420743
v -0.27044677 -0.10348081 0.29137212
vn -5.5564559e-17 -5.5564559e-17 1.00000000
vn -0.79595369 0.0000000e+0 0.60535751
vn -0.97570421 5.5064938e-17 -0.21909198
vn 0.97570421 0.0000000e+0 -0.21909198
vn 0.79595369 0.0000000e+0 0.60535751
vn -0.34146061 0.93678531 -7.6406332e-2
vn 0.34146061 0.93678531 -7.6406332e-2
vn -0.28428152 0.93405386 0.21616522
vn 1.8006576e-17 0.93738474 0.34829564
vn 0.28428152 0.93405386 0.21616522
vn 0.34146061 -0.93678531 -7.6406332e-2
vn -0.34146061 -0.93678531 -7.6406332e-2
vn 0.28428152 -0.93405386 0.21616522
vn -7.2026305e-18 -0.93738474 0.34829564
vn -0.28428152 -0.93405386 0.21616522
vn -0.78139778 0.0000000e+0 -0.62403327
vn -0.78139778 0.0000000e+0 -0.62403327
vn -1.3175210e-16 2.4934982e-16 -1.00000000
vn -1.3175210e-16 2.4934982e-16 -1.00000000
vn 0.78139778 0.0000000e+0 -0.62403327
vn 0.78139778 0.0000000e+0 -0.62403327
vn -1.3175210e-16 2.4934982e-16 -1.00000000
vn -1.3175210e-16 2.4934982e-16 -1.00000000
vn -1.4133376e-17 0.99945745 3.2936512e-2
vn -1.8844502e-17 0.99945745 3.2936512e-2
vn -1.8844502e-17 0.99945745 3.2936512e-2
vn -1.6488939e-17 0.99945745 3.2936512e-2
vn -1.6488939e-17 0.99945745 3.2936512e-2
vn -1.4133376e-17 0.99945745 3.2936512e-2
vn -6.3690443e-17 0.89540770 -0.44524718
vn -1.8844502e-17 -0.99945745 3.2936512e-2
vn -1.4133376e-17 -0.99945745 3.2936512e-2
vn -9.4222509e-18 -0.99945745 3.2936512e-2
vn -1.4133376e-17 -0.99945745 3.2936512e-2
vn -1.6488939e-17 -0.99945745 3.2936512e-2
vn -1.4133376e-17 -0.99945745 3.2936512e-2
vn -5.3634057e-17 -0.89540770 -0.44524718
vn 0.29362405 0.92671389 -0.23449156
vn 0.29362405 0.92671389 -0.23449156
vn -6.3690443e-17 0.89540770 -0.44524718
vn -0.29362405 0.92671389 -0.23449156
vn -0.29362405 0.92671389 -0.23449156
vn -6.3690443e-17 0.89540770 -0.44524718
vn -0.29362405 -0.92671389 -0.23449156
vn -0.29362405 -0.92671389 -0.23449156
vn -5.3634057e-17 -0.89540770 -0.44524718
vn 0.29362405 -0.92671389 -0.23449156
vn 0.29362405 -0.92671389 -0.23449156
vn -5.3634057e-17 -0.89540770 -0.44524718
g N-Gon1_copy3_Glow
usemtl Glow
s 1
f 4//19 5//23 20//49 9//37 19//46
f 12//40 5//22 4//18 13//43 8//30
s 2
f 1//1 15//9 14//8 2//2
f 1//1 22//14 21//13 7//5
f 2//2 14//8 10//6 3//3
f 2//2 23//15 22//14 1//1
f 3//3 10//6 13//41 4//16
f 3//3 18//12 23//15 2//2
f 4//17 19//44 18//12 3//3
f 5//20 12//38 11//7 6//4
f 6//4 11//7 16//10 7//5
f 6//4 17//11 20//47 5//21
f 7//5 16//10 15//9 1//1
f 7//5 21//13 17//11 6//4
f 8//24 10//6 14//8
f 8//29 16//10 11//7
f 9//31 21//13 22//14
f 9//36 23//15 18//12
f 11//7 12//39 8//25
f 13//42 10//6 8//26
f 14//8 15//9 8//27
f 15//9 16//10 8//28
f 17//11 21//13 9//34
f 18//12 19//45 9//32
f 20//48 17//11 9//33
f 22//14 23//15 9//35
o N-Gon1_copy2
#23 vertices, 26 faces
v -8.6932394e-5 -1.0206007e-3 0.57865729
v -0.38154702 -1.0206007e-3 0.37712599
v -0.47627741 -1.0206007e-3 -5.1547110e-2
v -0.25750729 -1.0206007e-3 -0.32548523
v 0.25733343 -1.0206007e-3 -0.32548523
v 0.47610354 -1.0206007e-3 -5.1547110e-2
v 0.38137315 -1.0206007e-3 0.37712599
v -8.6932394e-5 0.15510924 8.2692103e-2
v -8.6932394e-5 -0.15715044 8.2692103e-2
v -0.32151550 9.6560551e-2 -7.9193655e-3
v 0.32134164 9.6560551e-2 -7.9193655e-3
v 0.17367181 9.6560551e-2 -0.19282755
v -0.17384568 9.6560551e-2 -0.19282755
v -0.25757249 9.6560551e-2 0.28143498
v -8.6932394e-5 9.6560551e-2 0.41746860
v 0.25739862 9.6560551e-2 0.28143498
v 0.32134164 -9.8601753e-2 -7.9193655e-3
v -0.32151550 -9.8601753e-2 -7.9193655e-3
v -0.17384568 -9.8601753e-2 -0.19282755
v 0.17367181 -9.8601753e-2 -0.19282755
v 0.25739862 -9.8601753e-2 0.28143498
v -8.6932394e-5 -9.8601753e-2 0.41746860
v -0.25757249 -9.8601753e-2 0.28143498
vn 5.5564559e-17 -5.5564559e-17 1.00000000
vn -0.79595369 0.0000000e+0 0.60535751
vn -0.97570421 5.5064938e-17 -0.21909198
vn 0.97570421 0.0000000e+0 -0.21909198
vn 0.79595369 0.0000000e+0 0.60535751
vn -0.34146061 0.93678531 -7.6406332e-2
vn 0.34146061 0.93678531 -7.6406332e-2
vn -0.28428152 0.93405386 0.21616522
vn 2.8810522e-17 0.93738474 0.34829564
vn 0.28428152 0.93405386 0.21616522
vn 0.34146061 -0.93678531 -7.6406332e-2
vn -0.34146061 -0.93678531 -7.6406332e-2
vn 0.28428152 -0.93405386 0.21616522
vn 7.2026305e-18 -0.93738474 0.34829564
vn -0.28428152 -0.93405386 0.21616522
vn -0.78139778 0.0000000e+0 -0.62403327
vn -0.78139778 0.0000000e+0 -0.62403327
vn -1.4525669e-16 1.2467491e-16 -1.00000000
vn -1.4525669e-16 1.2467491e-16 -1.00000000
vn 0.78139778 0.0000000e+0 -0.62403327
vn 0.78139778 0.0000000e+0 -0.62403327
vn -1.4525669e-16 1.2467491e-16 -1.00000000
vn -1.4525669e-16 1.2467491e-16 -1.00000000
vn 0.0000000e+0 0.99945745 3.2936512e-2
vn 0.0000000e+0 0.99945745 3.2936512e-2
vn 0.0000000e+0 0.99945745 3.2936512e-2
vn 0.0000000e+0 0.99945745 3.2936512e-2
vn 2.3555627e-18 0.99945745 3.2936512e-2
vn 0.0000000e+0 0.99945745 3.2936512e-2
vn -7.0218713e-17 0.89540770 -0.44524718
vn -4.7111254e-18 -0.99945745 3.2936512e-2
vn -9.4222509e-18 -0.99945745 3.2936512e-2
vn 0.0000000e+0 -0.99945745 3.2936512e-2
vn -9.4222509e-18 -0.99945745 3.2936512e-2
vn -1.4133376e-17 -0.99945745 3.2936512e-2
vn -4.7111254e-18 -0.99945745 3.2936512e-2
vn -5.9131548e-17 -0.89540770 -0.44524718
vn 0.29362405 0.92671389 -0.23449156
vn 0.29362405 0.92671389 -0.23449156
vn -7.0218713e-17 0.89540770 -0.44524718
vn -0.29362405 0.92671389 -0.23449156
vn -0.29362405 0.92671389 -0.23449156
vn -7.0218713e-17 0.89540770 -0.44524718
vn -0.29362405 -0.92671389 -0.23449156
vn -0.29362405 -0.92671389 -0.23449156
vn -5.9131548e-17 -0.89540770 -0.44524718
vn 0.29362405 -0.92671389 -0.23449156
vn 0.29362405 -0.92671389 -0.23449156
vn -5.9131548e-17 -0.89540770 -0.44524718
g N-Gon1_copy2_Glow
usemtl Glow
s 1
f 27//68 28//72 43//98 32//86 42//95
f 35//89 28//71 27//67 36//92 31//79
s 2
f 24//50 38//58 37//57 25//51
f 24//50 45//63 44//62 30//54
f 25//51 37//57 33//55 26//52
f 25//51 46//64 45//63 24//50
f 26//52 33//55 36//90 27//65
f 26//52 41//61 46//64 25//51
f 27//66 42//93 41//61 26//52
f 28//69 35//87 34//56 29//53
f 29//53 34//56 39//59 30//54
f 29//53 40//60 43//96 28//70
f 30//54 39//59 38//58 24//50
f 30//54 44//62 40//60 29//53
f 31//73 33//55 37//57
f 31//78 39//59 34//56
f 32//80 44//62 45//63
f 32//85 46//64 41//61
f 34//56 35//88 31//74
f 36//91 33//55 31//75
f 37//57 38//58 31//76
f 38//58 39//59 31//77
f 40//60 44//62 32//83
f 41//61 42//94 32//81
f 43//97 40//60 32//82
f 45//63 46//64 32//84
o N-Gon1
#41 vertices, 45 faces
v -8.6932394e-5 -9.5620136e-4 0.55191234
v -0.36512051 -9.5620136e-4 0.35905943
v -0.45577160 -9.5620136e-4 -5.1154065e-2
v -0.24570046 -9.5603202e-4 -0.31375110
v 0.24596487 -9.5613485e-4 -0.31347462
v 0.45559773 -9.5620136e-4 -5.1154065e-2
v 0.36494664 -9.5620136e-4 0.35905943
v -8.6932394e-5 0.14845035 7.7304512e-2
v -8.6932394e-5 -0.15036275 7.7304512e-2
v -0.30767408 9.2422891e-2 -9.4050272e-3
v 0.30750022 9.2422891e-2 -9.4050272e-3
v 0.16590591 9.2422958e-2 -0.18652948
v -0.16564150 9.2423061e-2 -0.18680596
v -0.24648459 9.2422891e-2 0.26748908
v -8.6932394e-5 9.2422891e-2 0.39766480
v 0.24631073 9.2422891e-2 0.26748908
v 0.30750022 -9.4335294e-2 -9.4050272e-3
v -0.30767408 -9.4335294e-2 -9.4050272e-3
v -0.16636324 -9.4335294e-2 -0.18635066
v 0.16618938 -9.4335294e-2 -0.18635066
v 0.24631073 -9.4335294e-2 0.26748908
v -8.6932394e-5 -9.4335294e-2 0.39766480
v -0.24648459 -9.4335294e-2 0.26748908
v -0.24570063 0.12502221 -0.31371222
v -8.6928066e-5 0.16204685 7.7343416e-2
v 0.24596505 0.12502211 -0.31343574
v 0.24591236 -0.11703797 -0.31344770
v -8.6924991e-5 -0.16386767 7.7364703e-2
v -0.24564793 -0.11703787 -0.31372418
v 0.29172799 0.11814958 -0.38597211
v 0.29163235 -0.10835604 -0.38590181
v -0.29084566 -0.10846465 -0.38532167
v -0.29093941 0.11823497 -0.38539944
v 0.26098758 -8.8230216e-3 -0.38631508
v -0.26018971 -8.8230216e-3 -0.38631508
v -0.26018971 1.7630089e-2 -0.38631508
v 0.26098758 1.7630089e-2 -0.38631508
v 0.26098758 -8.8230216e-3 -0.34827621
v -0.26018971 -8.8230216e-3 -0.34827621
v -0.26018971 1.7630089e-2 -0.34827621
v 0.26098758 1.7630089e-2 -0.34827621
vn 0.0000000e+0 0.0000000e+0 1.00000000
vn -0.79595369 0.0000000e+0 0.60535751
vn -0.97560499 1.2139877e-4 -0.21953335
vn 0.97566522 4.7699233e-5 -0.21926554
vn 0.79595369 0.0000000e+0 0.60535751
vn -0.34136695 0.93680505 -7.6582585e-2
vn 0.34142376 0.93679309 -7.6475681e-2
vn -0.28428152 0.93405386 0.21616522
vn 1.8006576e-17 0.93738474 0.34829564
vn 0.28428152 0.93405386 0.21616522
vn 0.34147938 -0.93677460 -7.6453790e-2
vn -0.34150837 -0.93675804 -7.6527108e-2
vn 0.28428152 -0.93405386 0.21616522
vn 1.8006576e-17 -0.93738474 0.34829564
vn -0.28428152 -0.93405386 0.21616522
vn -0.78093268 2.2241259e-4 -0.62461517
vn -0.78093268 2.2241259e-4 -0.62461517
vn -0.84578539 -1.6581108e-4 0.53352324
vn -0.84894579 -2.6159289e-4 0.52847987
vn -0.84566567 -1.8926545e-4 0.53371298
vn 0.78121489 8.7408207e-5 -0.62426220
vn 0.78121489 8.7408207e-5 -0.62426220
vn 0.84578537 -1.6586920e-4 0.53352327
vn 0.84711552 -2.5997721e-4 0.53140872
vn 0.84574501 -2.0129305e-4 0.53358724
vn 7.2320910e-6 0.99945929 3.2880493e-2
vn 7.2320910e-6 0.99945929 3.2880493e-2
vn 7.2320910e-6 0.99945929 3.2880493e-2
vn 7.2320910e-6 0.99945929 3.2880493e-2
vn 7.2320910e-6 0.99945929 3.2880493e-2
vn 7.2320910e-6 0.99945929 3.2880493e-2
vn -0.84662988 -5.7996003e-3 0.53215055
vn 0.84612797 -2.6711101e-3 0.53297310
vn 1.1777814e-17 -0.99945745 3.2936512e-2
vn 9.4222509e-18 -0.99945745 3.2936512e-2
vn 1.4133376e-17 -0.99945745 3.2936512e-2
vn 4.7111254e-18 -0.99945745 3.2936512e-2
vn 1.1777814e-17 -0.99945745 3.2936512e-2
vn 1.4133376e-17 -0.99945745 3.2936512e-2
vn 0.84642853 -4.5605923e-3 0.53248281
vn -0.84725868 -1.1999340e-2 0.53104495
vn 0.29354294 0.92670559 -0.23462585
vn 0.29354294 0.92670559 -0.23462585
vn 0.84612797 -2.6711101e-3 0.53297310
vn 0.84578537 -1.6586920e-4 0.53352327
vn -0.29341789 0.92669276 -0.23483286
vn -0.29341789 0.92669276 -0.23483286
vn -0.84662988 -5.7996003e-3 0.53215055
vn -0.84578539 -1.6581108e-4 0.53352324
vn -0.29370412 -0.92662706 -0.23473429
vn -0.29370412 -0.92662706 -0.23473429
vn -0.84725868 -1.1999340e-2 0.53104495
vn -0.84894579 -2.6159289e-4 0.52847987
vn 0.29365551 -0.92667978 -0.23458693
vn 0.29365551 -0.92667978 -0.23458693
vn 0.84711552 -2.5997721e-4 0.53140872
vn 0.84642853 -4.5605923e-3 0.53248281
vn -0.84662988 -5.7996003e-3 0.53215055
vn -0.84578539 -1.6581108e-4 0.53352324
vn 5.3230532e-5 0.99554474 -9.4290319e-2
vn -0.84566567 -1.8926545e-4 0.53371298
vn -0.84662988 -5.7996003e-3 0.53215055
vn 0.84612797 -2.6711101e-3 0.53297310
vn 5.3230532e-5 0.99554474 -9.4290319e-2
vn 0.84612797 -2.6711101e-3 0.53297310
vn 0.84578537 -1.6586920e-4 0.53352327
vn 5.3230532e-5 0.99554474 -9.4290319e-2
vn 0.84574501 -2.0129305e-4 0.53358724
vn 0.84711552 -2.5997721e-4 0.53140872
vn 0.84642853 -4.5605923e-3 0.53248281
vn 6.6686861e-5 -0.99290215 -0.11893404
vn 0.84574501 -2.0129305e-4 0.53358724
vn 0.84642853 -4.5605923e-3 0.53248281
vn -0.84725868 -1.1999340e-2 0.53104495
vn 6.6686861e-5 -0.99290215 -0.11893404
vn -0.84725868 -1.1999340e-2 0.53104495
vn -0.84894579 -2.6159289e-4 0.52847987
vn 6.6686861e-5 -0.99290215 -0.11893404
vn -0.84566567 -1.8926545e-4 0.53371298
vn 5.3230532e-5 0.99554474 -9.4290319e-2
vn 0.84574501 -2.0129305e-4 0.53358724
vn -5.1830362e-4 6.2576924e-3 -0.99998029
vn 1.2323188e-2 -2.8258109e-4 -0.99992403
vn 6.6686861e-5 -0.99290215 -0.11893404
vn 0.84574501 -2.0129305e-4 0.53358724
vn -5.2494316e-4 -7.0623672e-3 -0.99997492
vn 1.2323188e-2 -2.8258109e-4 -0.99992403
vn 6.6686861e-5 -0.99290215 -0.11893404
vn -0.84566567 -1.8926545e-4 0.53371298
vn -5.2494316e-4 -7.0623672e-3 -0.99997492
vn -3.1079132e-2 -3.1858174e-4 -0.99951688
vn 5.3230532e-5 0.99554474 -9.4290319e-2
vn -0.84566567 -1.8926545e-4 0.53371298
vn -3.1079132e-2 -3.1858174e-4 -0.99951688
vn -5.1830362e-4 6.2576924e-3 -0.99998029
vn -5.2494316e-4 -7.0623672e-3 -0.99997492
vn 1.2323188e-2 -2.8258109e-4 -0.99992403
vn 0.0000000e+0 1.00000000 0.0000000e+0
vn -1.00000000 0.0000000e+0 0.0000000e+0
vn -5.2494316e-4 -7.0623672e-3 -0.99997492
vn -3.1079132e-2 -3.1858174e-4 -0.99951688
vn 0.0000000e+0 1.00000000 0.0000000e+0
vn 1.00000000 0.0000000e+0 0.0000000e+0
vn -3.1079132e-2 -3.1858174e-4 -0.99951688
vn -5.1830362e-4 6.2576924e-3 -0.99998029
vn 1.00000000 0.0000000e+0 0.0000000e+0
vn 0.0000000e+0 -1.00000000 0.0000000e+0
vn -5.1830362e-4 6.2576924e-3 -0.99998029
vn 1.2323188e-2 -2.8258109e-4 -0.99992403
vn 0.0000000e+0 -1.00000000 0.0000000e+0
vn -1.00000000 0.0000000e+0 0.0000000e+0
vn 0.0000000e+0 0.0000000e+0 -1.00000000
vn 0.0000000e+0 1.00000000 0.0000000e+0
vn -1.00000000 0.0000000e+0 0.0000000e+0
vn 0.0000000e+0 0.0000000e+0 -1.00000000
vn 0.0000000e+0 1.00000000 0.0000000e+0
vn 1.00000000 0.0000000e+0 0.0000000e+0
vn 0.0000000e+0 0.0000000e+0 -1.00000000
vn 1.00000000 0.0000000e+0 0.0000000e+0
vn 0.0000000e+0 -1.00000000 0.0000000e+0
vn 0.0000000e+0 0.0000000e+0 -1.00000000
vn 0.0000000e+0 -1.00000000 0.0000000e+0
vn -1.00000000 0.0000000e+0 0.0000000e+0
g N-Gon1_Engine
usemtl Engine
s 1
f 80//197 84//212 87//221 83//209
f 82//204 86//217 85//215 81//201
s 2
f 85//213 86//216 87//219 84//210
s 3
f 81//200 85//214 84//211 80//196
f 83//208 87//220 86//218 82//205
g N-Gon1_Wedge
usemtl Wedge
s 1
f 50//117 75//175 65//151
f 51//121 72//164 58//143
f 54//130 71//160 70//156 59//146
f 66//154 73//167 51//122
f 76//180 83//206 82//203 79//193
f 78//188 81//198 80//194 77//184
s 2
f 51//123 73//170 77//183 76//179 72//166
f 55//138 74//171 73//168 66//155
f 58//142 72//163 71//161 54//131
f 59//147 70//157 50//116
f 79//192 82//202 81//199 78//189
s 3
f 71//162 72//165 76//178 79//190 70//158
f 74//173 75//176 78//186 77//182 73//169
f 77//185 80//195 83//207 76//181
s 4
f 65//150 75//174 74//172 55//139
f 70//159 79//191 78//187 75//177 50//118
g N-Gon1_default2
usemtl default2
s 3
f 47//99 61//107 60//106 48//100
f 47//99 68//112 67//111 53//103
f 48//100 60//106 56//104 49//101
f 48//100 69//113 68//112 47//99
f 49//101 56//104 59//144 50//114
f 49//101 64//110 69//113 48//100
f 50//115 65//148 64//110 49//101
f 51//119 58//140 57//105 52//102
f 52//102 57//105 62//108 53//103
f 52//102 63//109 66//152 51//120
f 53//103 62//108 61//107 47//99
f 53//103 67//111 63//109 52//102
f 54//124 56//104 60//106
f 54//129 62//108 57//105
f 55//132 67//111 68//112
f 55//137 69//113 64//110
f 57//105 58//141 54//125
f 59//145 56//104 54//126
f 60//106 61//107 54//127
f 61//107 62//108 54//128
f 63//109 67//111 55//135
f 64//110 65//149 55//133
f 66//153 63//109 55//134
f 68//112 69//113 55//136
